<mxfile host="app.diagrams.net" modified="2023-11-16T08:24:38.068Z" agent="Mozilla/5.0 (Macintosh; Intel Mac OS X 10_15_7) AppleWebKit/537.36 (KHTML, like Gecko) Chrome/118.0.0.0 Safari/537.36" etag="QU9ncl4VxTAyd6Nt0PJ2" version="22.1.2" type="github" pages="7">
  <diagram id="EAbANqQJf72fO9tkzqav" name="第 1 页">
    <mxGraphModel dx="2074" dy="1128" grid="1" gridSize="10" guides="1" tooltips="1" connect="1" arrows="1" fold="1" page="1" pageScale="1" pageWidth="827" pageHeight="1169" math="0" shadow="0">
      <root>
        <mxCell id="0" />
        <mxCell id="1" parent="0" />
        <mxCell id="_0jzOASAHPxxDC5mGzmV-2" value="" style="rounded=0;whiteSpace=wrap;html=1;" parent="1" vertex="1">
          <mxGeometry x="90" y="80" width="680" height="380" as="geometry" />
        </mxCell>
        <mxCell id="_0jzOASAHPxxDC5mGzmV-3" value="" style="endArrow=none;dashed=1;html=1;rounded=0;entryX=0.25;entryY=0;entryDx=0;entryDy=0;exitX=0.25;exitY=1;exitDx=0;exitDy=0;" parent="1" source="_0jzOASAHPxxDC5mGzmV-2" target="_0jzOASAHPxxDC5mGzmV-2" edge="1">
          <mxGeometry width="50" height="50" relative="1" as="geometry">
            <mxPoint x="390" y="320" as="sourcePoint" />
            <mxPoint x="440" y="270" as="targetPoint" />
          </mxGeometry>
        </mxCell>
        <mxCell id="_0jzOASAHPxxDC5mGzmV-4" value="" style="endArrow=none;dashed=1;html=1;rounded=0;entryX=0.25;entryY=0;entryDx=0;entryDy=0;exitX=0.25;exitY=1;exitDx=0;exitDy=0;" parent="1" edge="1">
          <mxGeometry width="50" height="50" relative="1" as="geometry">
            <mxPoint x="550" y="460" as="sourcePoint" />
            <mxPoint x="550" y="80" as="targetPoint" />
          </mxGeometry>
        </mxCell>
        <mxCell id="_0jzOASAHPxxDC5mGzmV-5" value="展示层" style="text;html=1;align=center;verticalAlign=middle;resizable=0;points=[];autosize=1;strokeColor=none;fillColor=none;" parent="1" vertex="1">
          <mxGeometry x="140" y="38" width="60" height="30" as="geometry" />
        </mxCell>
        <mxCell id="_0jzOASAHPxxDC5mGzmV-6" value="逻辑层" style="text;html=1;align=center;verticalAlign=middle;resizable=0;points=[];autosize=1;strokeColor=none;fillColor=none;" parent="1" vertex="1">
          <mxGeometry x="350" y="38" width="60" height="30" as="geometry" />
        </mxCell>
        <mxCell id="_0jzOASAHPxxDC5mGzmV-7" value="数据层" style="text;html=1;align=center;verticalAlign=middle;resizable=0;points=[];autosize=1;strokeColor=none;fillColor=none;" parent="1" vertex="1">
          <mxGeometry x="620" y="38" width="60" height="30" as="geometry" />
        </mxCell>
        <mxCell id="_0jzOASAHPxxDC5mGzmV-8" value="移动终端" style="rounded=0;whiteSpace=wrap;html=1;" parent="1" vertex="1">
          <mxGeometry x="110" y="120" width="120" height="60" as="geometry" />
        </mxCell>
        <mxCell id="_0jzOASAHPxxDC5mGzmV-9" value="PC/浏览器" style="rounded=0;whiteSpace=wrap;html=1;" parent="1" vertex="1">
          <mxGeometry x="110" y="200" width="120" height="60" as="geometry" />
        </mxCell>
        <mxCell id="_0jzOASAHPxxDC5mGzmV-10" value="外部公示网站" style="rounded=0;whiteSpace=wrap;html=1;" parent="1" vertex="1">
          <mxGeometry x="110" y="280" width="120" height="60" as="geometry" />
        </mxCell>
        <mxCell id="_0jzOASAHPxxDC5mGzmV-11" value="省部数据交换平台" style="rounded=0;whiteSpace=wrap;html=1;" parent="1" vertex="1">
          <mxGeometry x="110" y="360" width="120" height="60" as="geometry" />
        </mxCell>
      </root>
    </mxGraphModel>
  </diagram>
  <diagram id="wTyN8SCHgVg_jUJljpPu" name="湖南执法数据工程规划设计图">
    <mxGraphModel dx="2074" dy="1128" grid="0" gridSize="10" guides="1" tooltips="1" connect="1" arrows="1" fold="1" page="1" pageScale="1" pageWidth="827" pageHeight="1169" math="0" shadow="0">
      <root>
        <mxCell id="0" />
        <mxCell id="1" parent="0" />
        <mxCell id="eTijxZ8QNCGS0nK6afBO-2" value="" style="rounded=0;whiteSpace=wrap;html=1;" parent="1" vertex="1">
          <mxGeometry x="259" y="84" width="425" height="115" as="geometry" />
        </mxCell>
        <mxCell id="eTijxZ8QNCGS0nK6afBO-3" value="应用系统" style="rounded=0;whiteSpace=wrap;html=1;horizontal=0;" parent="1" vertex="1">
          <mxGeometry x="181" y="84" width="51" height="116" as="geometry" />
        </mxCell>
        <mxCell id="eTijxZ8QNCGS0nK6afBO-4" value="执法协同办案系统&lt;br&gt;执法监督与评议考核系统&lt;br&gt;执法数据分析研判系统&lt;br&gt;执法信息公示和服务系统" style="rounded=0;whiteSpace=wrap;html=1;" parent="1" vertex="1">
          <mxGeometry x="271" y="92" width="176" height="98" as="geometry" />
        </mxCell>
        <mxCell id="eTijxZ8QNCGS0nK6afBO-6" value="移动综合执法办案系统&lt;br&gt;执法人员综合管理系统&lt;br&gt;执法监控调度系统" style="rounded=0;whiteSpace=wrap;html=1;" parent="1" vertex="1">
          <mxGeometry x="495" y="93" width="176" height="98" as="geometry" />
        </mxCell>
        <mxCell id="eTijxZ8QNCGS0nK6afBO-7" value="数据资源库建设" style="rounded=0;whiteSpace=wrap;html=1;horizontal=0;" parent="1" vertex="1">
          <mxGeometry x="181" y="225" width="51" height="165" as="geometry" />
        </mxCell>
        <mxCell id="eTijxZ8QNCGS0nK6afBO-8" value="" style="rounded=0;whiteSpace=wrap;html=1;" parent="1" vertex="1">
          <mxGeometry x="259" y="225" width="425" height="165" as="geometry" />
        </mxCell>
        <mxCell id="eTijxZ8QNCGS0nK6afBO-10" value="" style="rounded=0;whiteSpace=wrap;html=1;" parent="1" vertex="1">
          <mxGeometry x="268" y="234" width="87" height="151" as="geometry" />
        </mxCell>
        <mxCell id="eTijxZ8QNCGS0nK6afBO-11" value="" style="rounded=0;whiteSpace=wrap;html=1;" parent="1" vertex="1">
          <mxGeometry x="375" y="235" width="193" height="151" as="geometry" />
        </mxCell>
        <mxCell id="eTijxZ8QNCGS0nK6afBO-12" value="" style="rounded=0;whiteSpace=wrap;html=1;" parent="1" vertex="1">
          <mxGeometry x="584" y="235" width="87" height="151" as="geometry" />
        </mxCell>
        <mxCell id="eTijxZ8QNCGS0nK6afBO-13" value="" style="shape=cylinder3;whiteSpace=wrap;html=1;boundedLbl=1;backgroundOutline=1;size=15;" parent="1" vertex="1">
          <mxGeometry x="281" y="333" width="61" height="47" as="geometry" />
        </mxCell>
        <mxCell id="eTijxZ8QNCGS0nK6afBO-14" value="" style="shape=cylinder3;whiteSpace=wrap;html=1;boundedLbl=1;backgroundOutline=1;size=15;" parent="1" vertex="1">
          <mxGeometry x="597" y="324" width="61" height="47" as="geometry" />
        </mxCell>
        <mxCell id="eTijxZ8QNCGS0nK6afBO-15" value="" style="shape=cylinder3;whiteSpace=wrap;html=1;boundedLbl=1;backgroundOutline=1;size=15;" parent="1" vertex="1">
          <mxGeometry x="281" y="263" width="61" height="47" as="geometry" />
        </mxCell>
        <mxCell id="eTijxZ8QNCGS0nK6afBO-16" value="基础数据库" style="text;html=1;align=center;verticalAlign=middle;resizable=0;points=[];autosize=1;strokeColor=none;fillColor=none;" parent="1" vertex="1">
          <mxGeometry x="275" y="239" width="78" height="26" as="geometry" />
        </mxCell>
        <mxCell id="eTijxZ8QNCGS0nK6afBO-17" value="地图数据库" style="text;html=1;align=center;verticalAlign=middle;resizable=0;points=[];autosize=1;strokeColor=none;fillColor=none;" parent="1" vertex="1">
          <mxGeometry x="272.5" y="310" width="78" height="26" as="geometry" />
        </mxCell>
        <mxCell id="eTijxZ8QNCGS0nK6afBO-18" value="" style="shape=cylinder3;whiteSpace=wrap;html=1;boundedLbl=1;backgroundOutline=1;size=15;" parent="1" vertex="1">
          <mxGeometry x="386" y="259" width="61" height="47" as="geometry" />
        </mxCell>
        <mxCell id="eTijxZ8QNCGS0nK6afBO-19" value="" style="shape=cylinder3;whiteSpace=wrap;html=1;boundedLbl=1;backgroundOutline=1;size=15;" parent="1" vertex="1">
          <mxGeometry x="485" y="259" width="61" height="47" as="geometry" />
        </mxCell>
        <mxCell id="eTijxZ8QNCGS0nK6afBO-20" value="" style="shape=cylinder3;whiteSpace=wrap;html=1;boundedLbl=1;backgroundOutline=1;size=15;" parent="1" vertex="1">
          <mxGeometry x="386" y="321" width="61" height="47" as="geometry" />
        </mxCell>
        <mxCell id="eTijxZ8QNCGS0nK6afBO-21" value="" style="shape=cylinder3;whiteSpace=wrap;html=1;boundedLbl=1;backgroundOutline=1;size=15;" parent="1" vertex="1">
          <mxGeometry x="485" y="321" width="61" height="47" as="geometry" />
        </mxCell>
        <mxCell id="eTijxZ8QNCGS0nK6afBO-22" value="业务数据库" style="text;html=1;align=center;verticalAlign=middle;resizable=0;points=[];autosize=1;strokeColor=none;fillColor=none;" parent="1" vertex="1">
          <mxGeometry x="430" y="235" width="78" height="26" as="geometry" />
        </mxCell>
        <mxCell id="eTijxZ8QNCGS0nK6afBO-23" value="执法案件库" style="text;html=1;align=center;verticalAlign=middle;resizable=0;points=[];autosize=1;strokeColor=none;fillColor=none;" parent="1" vertex="1">
          <mxGeometry x="380" y="301" width="78" height="26" as="geometry" />
        </mxCell>
        <mxCell id="eTijxZ8QNCGS0nK6afBO-24" value="执法考试库" style="text;html=1;align=center;verticalAlign=middle;resizable=0;points=[];autosize=1;strokeColor=none;fillColor=none;" parent="1" vertex="1">
          <mxGeometry x="382" y="364" width="78" height="26" as="geometry" />
        </mxCell>
        <mxCell id="eTijxZ8QNCGS0nK6afBO-25" value="..." style="text;html=1;align=center;verticalAlign=middle;resizable=0;points=[];autosize=1;strokeColor=none;fillColor=none;" parent="1" vertex="1">
          <mxGeometry x="501.5" y="366" width="28" height="26" as="geometry" />
        </mxCell>
        <mxCell id="eTijxZ8QNCGS0nK6afBO-26" value="执法监督库" style="text;html=1;align=center;verticalAlign=middle;resizable=0;points=[];autosize=1;strokeColor=none;fillColor=none;" parent="1" vertex="1">
          <mxGeometry x="476.5" y="301" width="78" height="26" as="geometry" />
        </mxCell>
        <mxCell id="eTijxZ8QNCGS0nK6afBO-27" value="" style="shape=cylinder3;whiteSpace=wrap;html=1;boundedLbl=1;backgroundOutline=1;size=15;" parent="1" vertex="1">
          <mxGeometry x="595" y="259" width="61" height="47" as="geometry" />
        </mxCell>
        <mxCell id="eTijxZ8QNCGS0nK6afBO-28" value="执法案件库" style="text;html=1;align=center;verticalAlign=middle;resizable=0;points=[];autosize=1;strokeColor=none;fillColor=none;" parent="1" vertex="1">
          <mxGeometry x="586.5" y="237" width="78" height="26" as="geometry" />
        </mxCell>
        <mxCell id="eTijxZ8QNCGS0nK6afBO-29" value="执法设备" style="text;html=1;align=center;verticalAlign=middle;resizable=0;points=[];autosize=1;strokeColor=none;fillColor=none;" parent="1" vertex="1">
          <mxGeometry x="594.5" y="304" width="66" height="26" as="geometry" />
        </mxCell>
        <mxCell id="eTijxZ8QNCGS0nK6afBO-30" value="数据处理" style="rounded=0;whiteSpace=wrap;html=1;horizontal=0;" parent="1" vertex="1">
          <mxGeometry x="181" y="394" width="51" height="89" as="geometry" />
        </mxCell>
        <mxCell id="eTijxZ8QNCGS0nK6afBO-31" value="业务数据处理流程：抽取、清洗、转换、校验、加载&lt;br&gt;入库地理数据处理流程：数据获取、数据处理、数据预缓存&lt;br&gt;数据更新视频监控数据流程：依托执法监控调度系统实现对执法视频资源的浏览及视频设备持有人员的调度" style="rounded=0;whiteSpace=wrap;html=1;" parent="1" vertex="1">
          <mxGeometry x="259" y="394" width="425" height="89" as="geometry" />
        </mxCell>
        <mxCell id="eTijxZ8QNCGS0nK6afBO-32" value="数据采集" style="rounded=0;whiteSpace=wrap;html=1;horizontal=0;" parent="1" vertex="1">
          <mxGeometry x="181" y="500" width="51" height="89" as="geometry" />
        </mxCell>
        <mxCell id="eTijxZ8QNCGS0nK6afBO-33" value="" style="rounded=0;whiteSpace=wrap;html=1;" parent="1" vertex="1">
          <mxGeometry x="259" y="500" width="425" height="89" as="geometry" />
        </mxCell>
        <mxCell id="eTijxZ8QNCGS0nK6afBO-34" value="接口封装&lt;br&gt;数据导入" style="rounded=0;whiteSpace=wrap;html=1;" parent="1" vertex="1">
          <mxGeometry x="275" y="514.5" width="74" height="60" as="geometry" />
        </mxCell>
        <mxCell id="eTijxZ8QNCGS0nK6afBO-36" value="人工录入&lt;br&gt;系统产生" style="rounded=0;whiteSpace=wrap;html=1;" parent="1" vertex="1">
          <mxGeometry x="377" y="514.5" width="74" height="60" as="geometry" />
        </mxCell>
        <mxCell id="eTijxZ8QNCGS0nK6afBO-37" value="数据中台" style="rounded=0;whiteSpace=wrap;html=1;" parent="1" vertex="1">
          <mxGeometry x="582" y="514.5" width="74" height="60" as="geometry" />
        </mxCell>
        <mxCell id="eTijxZ8QNCGS0nK6afBO-38" value="自动采集" style="rounded=0;whiteSpace=wrap;html=1;" parent="1" vertex="1">
          <mxGeometry x="480" y="514.5" width="74" height="60" as="geometry" />
        </mxCell>
        <mxCell id="eTijxZ8QNCGS0nK6afBO-39" value="数据来源" style="rounded=0;whiteSpace=wrap;html=1;horizontal=0;" parent="1" vertex="1">
          <mxGeometry x="181" y="607" width="51" height="252" as="geometry" />
        </mxCell>
        <mxCell id="eTijxZ8QNCGS0nK6afBO-40" value="" style="rounded=0;whiteSpace=wrap;html=1;" parent="1" vertex="1">
          <mxGeometry x="259" y="607" width="425" height="251" as="geometry" />
        </mxCell>
        <mxCell id="eTijxZ8QNCGS0nK6afBO-41" value="" style="rounded=0;whiteSpace=wrap;html=1;" parent="1" vertex="1">
          <mxGeometry x="275" y="621.5" width="74" height="222.5" as="geometry" />
        </mxCell>
        <mxCell id="eTijxZ8QNCGS0nK6afBO-42" value="" style="rounded=0;whiteSpace=wrap;html=1;" parent="1" vertex="1">
          <mxGeometry x="377" y="621.5" width="74" height="222.5" as="geometry" />
        </mxCell>
        <mxCell id="eTijxZ8QNCGS0nK6afBO-43" value="" style="rounded=0;whiteSpace=wrap;html=1;" parent="1" vertex="1">
          <mxGeometry x="480" y="621.5" width="74" height="221.5" as="geometry" />
        </mxCell>
        <mxCell id="eTijxZ8QNCGS0nK6afBO-44" value="" style="rounded=0;whiteSpace=wrap;html=1;" parent="1" vertex="1">
          <mxGeometry x="582" y="621.5" width="74" height="221.5" as="geometry" />
        </mxCell>
        <mxCell id="eTijxZ8QNCGS0nK6afBO-45" value="&lt;font style=&quot;font-size: 12px;&quot;&gt;省交通运输厅&lt;/font&gt;" style="text;html=1;align=center;verticalAlign=middle;resizable=0;points=[];autosize=1;strokeColor=none;fillColor=none;" parent="1" vertex="1">
          <mxGeometry x="267" y="621" width="90" height="26" as="geometry" />
        </mxCell>
        <mxCell id="eTijxZ8QNCGS0nK6afBO-46" value="&lt;font style=&quot;font-size: 12px;&quot;&gt;工程新建系统&lt;/font&gt;" style="text;html=1;align=center;verticalAlign=middle;resizable=0;points=[];autosize=1;strokeColor=none;fillColor=none;" parent="1" vertex="1">
          <mxGeometry x="368.5" y="621" width="90" height="26" as="geometry" />
        </mxCell>
        <mxCell id="eTijxZ8QNCGS0nK6afBO-47" value="&lt;font style=&quot;font-size: 12px;&quot;&gt;执法终端设备&lt;/font&gt;" style="text;html=1;align=center;verticalAlign=middle;resizable=0;points=[];autosize=1;strokeColor=none;fillColor=none;" parent="1" vertex="1">
          <mxGeometry x="472" y="621" width="90" height="26" as="geometry" />
        </mxCell>
        <mxCell id="eTijxZ8QNCGS0nK6afBO-48" value="&lt;font style=&quot;font-size: 12px;&quot;&gt;外部共享系统&lt;/font&gt;" style="text;html=1;align=center;verticalAlign=middle;resizable=0;points=[];autosize=1;strokeColor=none;fillColor=none;" parent="1" vertex="1">
          <mxGeometry x="574" y="621" width="90" height="26" as="geometry" />
        </mxCell>
        <mxCell id="eTijxZ8QNCGS0nK6afBO-49" value="公路水路建设信用系统" style="rounded=0;whiteSpace=wrap;html=1;" parent="1" vertex="1">
          <mxGeometry x="278.25" y="653" width="67.5" height="35" as="geometry" />
        </mxCell>
        <mxCell id="eTijxZ8QNCGS0nK6afBO-50" value="12328交通监督系统" style="rounded=0;whiteSpace=wrap;html=1;" parent="1" vertex="1">
          <mxGeometry x="277.75" y="702" width="67.5" height="35" as="geometry" />
        </mxCell>
        <mxCell id="eTijxZ8QNCGS0nK6afBO-51" value="道路运输三级协同系统" style="rounded=0;whiteSpace=wrap;html=1;" parent="1" vertex="1">
          <mxGeometry x="277.75" y="751" width="67.5" height="35" as="geometry" />
        </mxCell>
        <mxCell id="eTijxZ8QNCGS0nK6afBO-52" value="......" style="rounded=0;whiteSpace=wrap;html=1;" parent="1" vertex="1">
          <mxGeometry x="277.75" y="800" width="67.5" height="35" as="geometry" />
        </mxCell>
        <mxCell id="eTijxZ8QNCGS0nK6afBO-53" value="执法办案系统" style="rounded=0;whiteSpace=wrap;html=1;" parent="1" vertex="1">
          <mxGeometry x="379.5" y="653" width="67.5" height="35" as="geometry" />
        </mxCell>
        <mxCell id="eTijxZ8QNCGS0nK6afBO-54" value="监督评议考核系统" style="rounded=0;whiteSpace=wrap;html=1;" parent="1" vertex="1">
          <mxGeometry x="379" y="702" width="67.5" height="35" as="geometry" />
        </mxCell>
        <mxCell id="eTijxZ8QNCGS0nK6afBO-55" value="执法分析研判系统" style="rounded=0;whiteSpace=wrap;html=1;" parent="1" vertex="1">
          <mxGeometry x="379" y="751" width="67.5" height="35" as="geometry" />
        </mxCell>
        <mxCell id="eTijxZ8QNCGS0nK6afBO-56" value="......" style="rounded=0;whiteSpace=wrap;html=1;" parent="1" vertex="1">
          <mxGeometry x="379" y="800" width="67.5" height="35" as="geometry" />
        </mxCell>
        <mxCell id="eTijxZ8QNCGS0nK6afBO-57" value="执法记录仪" style="rounded=0;whiteSpace=wrap;html=1;" parent="1" vertex="1">
          <mxGeometry x="483.5" y="653" width="67.5" height="35" as="geometry" />
        </mxCell>
        <mxCell id="eTijxZ8QNCGS0nK6afBO-58" value="手持执法终端" style="rounded=0;whiteSpace=wrap;html=1;" parent="1" vertex="1">
          <mxGeometry x="483" y="702" width="67.5" height="35" as="geometry" />
        </mxCell>
        <mxCell id="eTijxZ8QNCGS0nK6afBO-59" value="车船载执法终端" style="rounded=0;whiteSpace=wrap;html=1;" parent="1" vertex="1">
          <mxGeometry x="483" y="751" width="67.5" height="35" as="geometry" />
        </mxCell>
        <mxCell id="eTijxZ8QNCGS0nK6afBO-60" value="......" style="rounded=0;whiteSpace=wrap;html=1;" parent="1" vertex="1">
          <mxGeometry x="483" y="800" width="67.5" height="35" as="geometry" />
        </mxCell>
        <mxCell id="eTijxZ8QNCGS0nK6afBO-61" value="交通运输部部级系统" style="rounded=0;whiteSpace=wrap;html=1;" parent="1" vertex="1">
          <mxGeometry x="585.5" y="652" width="67.5" height="35" as="geometry" />
        </mxCell>
        <mxCell id="eTijxZ8QNCGS0nK6afBO-62" value="公安部门违法违规信息" style="rounded=0;whiteSpace=wrap;html=1;" parent="1" vertex="1">
          <mxGeometry x="585" y="701" width="67.5" height="35" as="geometry" />
        </mxCell>
        <mxCell id="eTijxZ8QNCGS0nK6afBO-63" value="监管部门：企业、法人" style="rounded=0;whiteSpace=wrap;html=1;" parent="1" vertex="1">
          <mxGeometry x="585" y="750" width="67.5" height="35" as="geometry" />
        </mxCell>
        <mxCell id="eTijxZ8QNCGS0nK6afBO-64" value="......" style="rounded=0;whiteSpace=wrap;html=1;" parent="1" vertex="1">
          <mxGeometry x="585" y="799" width="67.5" height="35" as="geometry" />
        </mxCell>
        <mxCell id="eTijxZ8QNCGS0nK6afBO-65" value="" style="shape=flexArrow;endArrow=classic;html=1;rounded=0;" parent="1" edge="1">
          <mxGeometry width="50" height="50" relative="1" as="geometry">
            <mxPoint x="313.5" y="616.5" as="sourcePoint" />
            <mxPoint x="313.5" y="574.5" as="targetPoint" />
          </mxGeometry>
        </mxCell>
        <mxCell id="eTijxZ8QNCGS0nK6afBO-72" value="" style="shape=flexArrow;endArrow=classic;html=1;rounded=0;" parent="1" edge="1">
          <mxGeometry width="50" height="50" relative="1" as="geometry">
            <mxPoint x="413.5" y="616.5" as="sourcePoint" />
            <mxPoint x="413.5" y="574.5" as="targetPoint" />
          </mxGeometry>
        </mxCell>
        <mxCell id="eTijxZ8QNCGS0nK6afBO-73" value="" style="shape=flexArrow;endArrow=classic;html=1;rounded=0;" parent="1" edge="1">
          <mxGeometry width="50" height="50" relative="1" as="geometry">
            <mxPoint x="516.25" y="616.5" as="sourcePoint" />
            <mxPoint x="516.25" y="574.5" as="targetPoint" />
          </mxGeometry>
        </mxCell>
        <mxCell id="eTijxZ8QNCGS0nK6afBO-74" value="" style="shape=flexArrow;endArrow=classic;html=1;rounded=0;" parent="1" edge="1">
          <mxGeometry width="50" height="50" relative="1" as="geometry">
            <mxPoint x="618.75" y="616.5" as="sourcePoint" />
            <mxPoint x="618.75" y="574.5" as="targetPoint" />
          </mxGeometry>
        </mxCell>
        <mxCell id="eTijxZ8QNCGS0nK6afBO-79" value="" style="shape=flexArrow;endArrow=classic;html=1;rounded=0;" parent="1" edge="1">
          <mxGeometry width="50" height="50" relative="1" as="geometry">
            <mxPoint x="616.25" y="513" as="sourcePoint" />
            <mxPoint x="616.25" y="471" as="targetPoint" />
          </mxGeometry>
        </mxCell>
        <mxCell id="eTijxZ8QNCGS0nK6afBO-80" value="" style="shape=flexArrow;endArrow=classic;html=1;rounded=0;" parent="1" edge="1">
          <mxGeometry width="50" height="50" relative="1" as="geometry">
            <mxPoint x="311" y="513" as="sourcePoint" />
            <mxPoint x="311" y="471" as="targetPoint" />
          </mxGeometry>
        </mxCell>
        <mxCell id="eTijxZ8QNCGS0nK6afBO-81" value="" style="shape=flexArrow;endArrow=classic;html=1;rounded=0;" parent="1" edge="1">
          <mxGeometry width="50" height="50" relative="1" as="geometry">
            <mxPoint x="411" y="513" as="sourcePoint" />
            <mxPoint x="411" y="471" as="targetPoint" />
          </mxGeometry>
        </mxCell>
        <mxCell id="eTijxZ8QNCGS0nK6afBO-82" value="" style="shape=flexArrow;endArrow=classic;html=1;rounded=0;" parent="1" edge="1">
          <mxGeometry width="50" height="50" relative="1" as="geometry">
            <mxPoint x="513.75" y="513" as="sourcePoint" />
            <mxPoint x="513.75" y="471" as="targetPoint" />
          </mxGeometry>
        </mxCell>
        <mxCell id="eTijxZ8QNCGS0nK6afBO-83" value="" style="shape=flexArrow;endArrow=classic;html=1;rounded=0;" parent="1" edge="1">
          <mxGeometry width="50" height="50" relative="1" as="geometry">
            <mxPoint x="313.5" y="232" as="sourcePoint" />
            <mxPoint x="313.5" y="190" as="targetPoint" />
          </mxGeometry>
        </mxCell>
        <mxCell id="eTijxZ8QNCGS0nK6afBO-84" value="" style="shape=flexArrow;endArrow=classic;html=1;rounded=0;" parent="1" edge="1">
          <mxGeometry width="50" height="50" relative="1" as="geometry">
            <mxPoint x="413" y="232" as="sourcePoint" />
            <mxPoint x="413" y="190" as="targetPoint" />
          </mxGeometry>
        </mxCell>
        <mxCell id="eTijxZ8QNCGS0nK6afBO-85" value="" style="shape=flexArrow;endArrow=classic;html=1;rounded=0;" parent="1" edge="1">
          <mxGeometry width="50" height="50" relative="1" as="geometry">
            <mxPoint x="625" y="232" as="sourcePoint" />
            <mxPoint x="625" y="190" as="targetPoint" />
          </mxGeometry>
        </mxCell>
      </root>
    </mxGraphModel>
  </diagram>
  <diagram id="a1ptUHQYkZo3csUvNKjT" name="第 3 页">
    <mxGraphModel dx="2074" dy="1128" grid="0" gridSize="10" guides="1" tooltips="1" connect="1" arrows="1" fold="1" page="1" pageScale="1" pageWidth="827" pageHeight="1169" math="0" shadow="0">
      <root>
        <mxCell id="0" />
        <mxCell id="1" parent="0" />
        <mxCell id="GIzbBoAL7nfuyQRtr9xs-3" style="edgeStyle=orthogonalEdgeStyle;rounded=0;orthogonalLoop=1;jettySize=auto;html=1;" parent="1" source="GIzbBoAL7nfuyQRtr9xs-1" target="GIzbBoAL7nfuyQRtr9xs-2" edge="1">
          <mxGeometry relative="1" as="geometry" />
        </mxCell>
        <mxCell id="GIzbBoAL7nfuyQRtr9xs-1" value="线索" style="ellipse;whiteSpace=wrap;html=1;aspect=fixed;" parent="1" vertex="1">
          <mxGeometry x="61" y="170" width="80" height="80" as="geometry" />
        </mxCell>
        <mxCell id="GIzbBoAL7nfuyQRtr9xs-5" style="edgeStyle=orthogonalEdgeStyle;rounded=0;orthogonalLoop=1;jettySize=auto;html=1;exitX=1;exitY=0.5;exitDx=0;exitDy=0;" parent="1" source="GIzbBoAL7nfuyQRtr9xs-2" target="GIzbBoAL7nfuyQRtr9xs-4" edge="1">
          <mxGeometry relative="1" as="geometry" />
        </mxCell>
        <mxCell id="GIzbBoAL7nfuyQRtr9xs-10" style="edgeStyle=orthogonalEdgeStyle;rounded=0;orthogonalLoop=1;jettySize=auto;html=1;entryX=0.5;entryY=0;entryDx=0;entryDy=0;" parent="1" source="GIzbBoAL7nfuyQRtr9xs-2" target="GIzbBoAL7nfuyQRtr9xs-1" edge="1">
          <mxGeometry relative="1" as="geometry">
            <Array as="points">
              <mxPoint x="284" y="150" />
              <mxPoint x="101" y="150" />
            </Array>
          </mxGeometry>
        </mxCell>
        <mxCell id="GIzbBoAL7nfuyQRtr9xs-11" value="打回到线索" style="edgeLabel;html=1;align=center;verticalAlign=middle;resizable=0;points=[];" parent="GIzbBoAL7nfuyQRtr9xs-10" vertex="1" connectable="0">
          <mxGeometry x="0.0758" y="1" relative="1" as="geometry">
            <mxPoint as="offset" />
          </mxGeometry>
        </mxCell>
        <mxCell id="GIzbBoAL7nfuyQRtr9xs-2" value="立案" style="rounded=0;whiteSpace=wrap;html=1;" parent="1" vertex="1">
          <mxGeometry x="226" y="180" width="120" height="60" as="geometry" />
        </mxCell>
        <mxCell id="GIzbBoAL7nfuyQRtr9xs-8" style="edgeStyle=orthogonalEdgeStyle;rounded=0;orthogonalLoop=1;jettySize=auto;html=1;" parent="1" source="GIzbBoAL7nfuyQRtr9xs-4" target="GIzbBoAL7nfuyQRtr9xs-7" edge="1">
          <mxGeometry relative="1" as="geometry" />
        </mxCell>
        <mxCell id="GIzbBoAL7nfuyQRtr9xs-4" value="案件信息录入" style="rounded=0;whiteSpace=wrap;html=1;" parent="1" vertex="1">
          <mxGeometry x="414" y="180" width="120" height="60" as="geometry" />
        </mxCell>
        <mxCell id="GIzbBoAL7nfuyQRtr9xs-13" style="edgeStyle=orthogonalEdgeStyle;rounded=0;orthogonalLoop=1;jettySize=auto;html=1;exitX=0.5;exitY=1;exitDx=0;exitDy=0;entryX=0.5;entryY=0;entryDx=0;entryDy=0;" parent="1" source="GIzbBoAL7nfuyQRtr9xs-6" target="GIzbBoAL7nfuyQRtr9xs-12" edge="1">
          <mxGeometry relative="1" as="geometry" />
        </mxCell>
        <mxCell id="GIzbBoAL7nfuyQRtr9xs-14" value="否" style="edgeLabel;html=1;align=center;verticalAlign=middle;resizable=0;points=[];" parent="GIzbBoAL7nfuyQRtr9xs-13" vertex="1" connectable="0">
          <mxGeometry x="-0.4386" y="2" relative="1" as="geometry">
            <mxPoint as="offset" />
          </mxGeometry>
        </mxCell>
        <mxCell id="GIzbBoAL7nfuyQRtr9xs-16" style="edgeStyle=orthogonalEdgeStyle;rounded=0;orthogonalLoop=1;jettySize=auto;html=1;" parent="1" source="GIzbBoAL7nfuyQRtr9xs-6" target="GIzbBoAL7nfuyQRtr9xs-15" edge="1">
          <mxGeometry relative="1" as="geometry" />
        </mxCell>
        <mxCell id="GIzbBoAL7nfuyQRtr9xs-17" value="是" style="edgeLabel;html=1;align=center;verticalAlign=middle;resizable=0;points=[];" parent="GIzbBoAL7nfuyQRtr9xs-16" vertex="1" connectable="0">
          <mxGeometry x="-0.3137" y="1" relative="1" as="geometry">
            <mxPoint as="offset" />
          </mxGeometry>
        </mxCell>
        <mxCell id="GIzbBoAL7nfuyQRtr9xs-6" value="是否立案" style="rhombus;whiteSpace=wrap;html=1;" parent="1" vertex="1">
          <mxGeometry x="609" y="289" width="80" height="80" as="geometry" />
        </mxCell>
        <mxCell id="GIzbBoAL7nfuyQRtr9xs-9" style="edgeStyle=orthogonalEdgeStyle;rounded=0;orthogonalLoop=1;jettySize=auto;html=1;" parent="1" source="GIzbBoAL7nfuyQRtr9xs-7" target="GIzbBoAL7nfuyQRtr9xs-6" edge="1">
          <mxGeometry relative="1" as="geometry" />
        </mxCell>
        <mxCell id="GIzbBoAL7nfuyQRtr9xs-7" value="文书管理" style="rounded=0;whiteSpace=wrap;html=1;" parent="1" vertex="1">
          <mxGeometry x="589" y="180" width="120" height="60" as="geometry" />
        </mxCell>
        <mxCell id="GIzbBoAL7nfuyQRtr9xs-12" value="不予立案" style="ellipse;whiteSpace=wrap;html=1;aspect=fixed;" parent="1" vertex="1">
          <mxGeometry x="609" y="407" width="80" height="80" as="geometry" />
        </mxCell>
        <mxCell id="GIzbBoAL7nfuyQRtr9xs-15" value="调查取证" style="ellipse;whiteSpace=wrap;html=1;aspect=fixed;" parent="1" vertex="1">
          <mxGeometry x="461" y="289" width="80" height="80" as="geometry" />
        </mxCell>
      </root>
    </mxGraphModel>
  </diagram>
  <diagram id="giSDUuJBL_7SiJ7WMdiv" name="第 4 页">
    <mxGraphModel dx="2074" dy="1128" grid="0" gridSize="10" guides="1" tooltips="1" connect="1" arrows="1" fold="1" page="1" pageScale="1" pageWidth="827" pageHeight="1169" math="0" shadow="0">
      <root>
        <mxCell id="0" />
        <mxCell id="1" parent="0" />
        <mxCell id="adyWF7pLxPAmqmtwIf8--6" style="edgeStyle=orthogonalEdgeStyle;rounded=0;orthogonalLoop=1;jettySize=auto;html=1;exitX=0.5;exitY=0;exitDx=0;exitDy=0;entryX=0.5;entryY=1;entryDx=0;entryDy=0;" parent="1" source="adyWF7pLxPAmqmtwIf8--1" target="adyWF7pLxPAmqmtwIf8--5" edge="1">
          <mxGeometry relative="1" as="geometry" />
        </mxCell>
        <mxCell id="adyWF7pLxPAmqmtwIf8--15" style="edgeStyle=orthogonalEdgeStyle;rounded=0;orthogonalLoop=1;jettySize=auto;html=1;exitX=0.5;exitY=1;exitDx=0;exitDy=0;" parent="1" source="adyWF7pLxPAmqmtwIf8--1" target="adyWF7pLxPAmqmtwIf8--14" edge="1">
          <mxGeometry relative="1" as="geometry" />
        </mxCell>
        <mxCell id="adyWF7pLxPAmqmtwIf8--1" value="文书填充服务" style="rounded=0;whiteSpace=wrap;html=1;" parent="1" vertex="1">
          <mxGeometry x="95" y="221" width="120" height="60" as="geometry" />
        </mxCell>
        <mxCell id="adyWF7pLxPAmqmtwIf8--2" value="ValueLIstener" style="rounded=0;whiteSpace=wrap;html=1;" parent="1" vertex="1">
          <mxGeometry x="429" y="116" width="120" height="60" as="geometry" />
        </mxCell>
        <mxCell id="adyWF7pLxPAmqmtwIf8--8" style="edgeStyle=orthogonalEdgeStyle;rounded=0;orthogonalLoop=1;jettySize=auto;html=1;exitX=0.5;exitY=0;exitDx=0;exitDy=0;entryX=0.5;entryY=1;entryDx=0;entryDy=0;" parent="1" source="adyWF7pLxPAmqmtwIf8--3" target="adyWF7pLxPAmqmtwIf8--2" edge="1">
          <mxGeometry relative="1" as="geometry" />
        </mxCell>
        <mxCell id="adyWF7pLxPAmqmtwIf8--3" value="TableValueListener" style="rounded=0;whiteSpace=wrap;html=1;" parent="1" vertex="1">
          <mxGeometry x="318" y="221" width="120" height="60" as="geometry" />
        </mxCell>
        <mxCell id="adyWF7pLxPAmqmtwIf8--9" style="edgeStyle=orthogonalEdgeStyle;rounded=0;orthogonalLoop=1;jettySize=auto;html=1;entryX=0.5;entryY=1;entryDx=0;entryDy=0;" parent="1" source="adyWF7pLxPAmqmtwIf8--4" target="adyWF7pLxPAmqmtwIf8--2" edge="1">
          <mxGeometry relative="1" as="geometry" />
        </mxCell>
        <mxCell id="adyWF7pLxPAmqmtwIf8--4" value="DictValueListener" style="rounded=0;whiteSpace=wrap;html=1;" parent="1" vertex="1">
          <mxGeometry x="506" y="221" width="120" height="60" as="geometry" />
        </mxCell>
        <mxCell id="adyWF7pLxPAmqmtwIf8--7" style="edgeStyle=orthogonalEdgeStyle;rounded=0;orthogonalLoop=1;jettySize=auto;html=1;" parent="1" source="adyWF7pLxPAmqmtwIf8--5" target="adyWF7pLxPAmqmtwIf8--2" edge="1">
          <mxGeometry relative="1" as="geometry" />
        </mxCell>
        <mxCell id="adyWF7pLxPAmqmtwIf8--5" value="带入值规则Loader" style="rounded=0;whiteSpace=wrap;html=1;" parent="1" vertex="1">
          <mxGeometry x="95" y="116" width="120" height="60" as="geometry" />
        </mxCell>
        <mxCell id="adyWF7pLxPAmqmtwIf8--12" style="edgeStyle=orthogonalEdgeStyle;rounded=0;orthogonalLoop=1;jettySize=auto;html=1;" parent="1" source="adyWF7pLxPAmqmtwIf8--10" target="adyWF7pLxPAmqmtwIf8--2" edge="1">
          <mxGeometry relative="1" as="geometry">
            <Array as="points">
              <mxPoint x="740" y="199" />
              <mxPoint x="489" y="199" />
            </Array>
          </mxGeometry>
        </mxCell>
        <mxCell id="adyWF7pLxPAmqmtwIf8--10" value="CustomValueListener" style="rounded=0;whiteSpace=wrap;html=1;" parent="1" vertex="1">
          <mxGeometry x="680" y="221" width="120" height="60" as="geometry" />
        </mxCell>
        <mxCell id="adyWF7pLxPAmqmtwIf8--16" style="edgeStyle=orthogonalEdgeStyle;rounded=0;orthogonalLoop=1;jettySize=auto;html=1;exitX=0.5;exitY=1;exitDx=0;exitDy=0;exitPerimeter=0;" parent="1" source="adyWF7pLxPAmqmtwIf8--13" target="adyWF7pLxPAmqmtwIf8--5" edge="1">
          <mxGeometry relative="1" as="geometry" />
        </mxCell>
        <mxCell id="adyWF7pLxPAmqmtwIf8--13" value="配置规则库" style="shape=cylinder3;whiteSpace=wrap;html=1;boundedLbl=1;backgroundOutline=1;size=15;" parent="1" vertex="1">
          <mxGeometry x="114" y="30" width="83" height="54" as="geometry" />
        </mxCell>
        <mxCell id="adyWF7pLxPAmqmtwIf8--14" value="文书页面" style="ellipse;whiteSpace=wrap;html=1;aspect=fixed;" parent="1" vertex="1">
          <mxGeometry x="115" y="326" width="80" height="80" as="geometry" />
        </mxCell>
      </root>
    </mxGraphModel>
  </diagram>
  <diagram id="QAD0PPe3KOBFixR9ve8I" name="第 5 页">
    <mxGraphModel dx="2074" dy="1128" grid="0" gridSize="10" guides="1" tooltips="1" connect="1" arrows="1" fold="1" page="1" pageScale="1" pageWidth="827" pageHeight="1169" math="0" shadow="0">
      <root>
        <mxCell id="0" />
        <mxCell id="1" parent="0" />
        <mxCell id="iQq_EG-Ltk0UznXGDvQp-19" style="edgeStyle=orthogonalEdgeStyle;rounded=0;orthogonalLoop=1;jettySize=auto;html=1;exitX=1;exitY=0.3333333333333333;exitDx=0;exitDy=0;exitPerimeter=0;entryX=0.005;entryY=0.408;entryDx=0;entryDy=0;entryPerimeter=0;" parent="1" source="iQq_EG-Ltk0UznXGDvQp-1" target="iQq_EG-Ltk0UznXGDvQp-2" edge="1">
          <mxGeometry relative="1" as="geometry" />
        </mxCell>
        <mxCell id="iQq_EG-Ltk0UznXGDvQp-1" value="Actor" style="shape=umlActor;verticalLabelPosition=bottom;verticalAlign=top;html=1;outlineConnect=0;" parent="1" vertex="1">
          <mxGeometry x="86" y="294" width="30" height="60" as="geometry" />
        </mxCell>
        <mxCell id="iQq_EG-Ltk0UznXGDvQp-20" style="edgeStyle=orthogonalEdgeStyle;rounded=0;orthogonalLoop=1;jettySize=auto;html=1;exitX=1;exitY=0.5;exitDx=0;exitDy=0;entryX=0;entryY=0.5;entryDx=0;entryDy=0;" parent="1" source="iQq_EG-Ltk0UznXGDvQp-2" target="iQq_EG-Ltk0UznXGDvQp-8" edge="1">
          <mxGeometry relative="1" as="geometry" />
        </mxCell>
        <mxCell id="iQq_EG-Ltk0UznXGDvQp-2" value="" style="rounded=0;whiteSpace=wrap;html=1;" parent="1" vertex="1">
          <mxGeometry x="201" y="179" width="146" height="381" as="geometry" />
        </mxCell>
        <mxCell id="iQq_EG-Ltk0UznXGDvQp-5" value="执法平台" style="text;html=1;align=center;verticalAlign=middle;resizable=0;points=[];autosize=1;strokeColor=none;fillColor=none;" parent="1" vertex="1">
          <mxGeometry x="236" y="145" width="66" height="26" as="geometry" />
        </mxCell>
        <mxCell id="iQq_EG-Ltk0UznXGDvQp-7" value="中台" style="text;html=1;align=center;verticalAlign=middle;resizable=0;points=[];autosize=1;strokeColor=none;fillColor=none;" parent="1" vertex="1">
          <mxGeometry x="448" y="139" width="42" height="26" as="geometry" />
        </mxCell>
        <mxCell id="iQq_EG-Ltk0UznXGDvQp-22" style="edgeStyle=orthogonalEdgeStyle;rounded=0;orthogonalLoop=1;jettySize=auto;html=1;" parent="1" source="iQq_EG-Ltk0UznXGDvQp-8" target="iQq_EG-Ltk0UznXGDvQp-10" edge="1">
          <mxGeometry relative="1" as="geometry" />
        </mxCell>
        <mxCell id="iQq_EG-Ltk0UznXGDvQp-23" style="edgeStyle=orthogonalEdgeStyle;rounded=0;orthogonalLoop=1;jettySize=auto;html=1;entryX=0;entryY=0.5;entryDx=0;entryDy=0;" parent="1" source="iQq_EG-Ltk0UznXGDvQp-8" target="iQq_EG-Ltk0UznXGDvQp-11" edge="1">
          <mxGeometry relative="1" as="geometry" />
        </mxCell>
        <mxCell id="iQq_EG-Ltk0UznXGDvQp-24" style="edgeStyle=orthogonalEdgeStyle;rounded=0;orthogonalLoop=1;jettySize=auto;html=1;exitX=1;exitY=0.5;exitDx=0;exitDy=0;" parent="1" source="iQq_EG-Ltk0UznXGDvQp-8" target="iQq_EG-Ltk0UznXGDvQp-12" edge="1">
          <mxGeometry relative="1" as="geometry" />
        </mxCell>
        <mxCell id="iQq_EG-Ltk0UznXGDvQp-25" style="edgeStyle=orthogonalEdgeStyle;rounded=0;orthogonalLoop=1;jettySize=auto;html=1;exitX=1;exitY=0.5;exitDx=0;exitDy=0;entryX=0;entryY=0.5;entryDx=0;entryDy=0;" parent="1" source="iQq_EG-Ltk0UznXGDvQp-8" target="iQq_EG-Ltk0UznXGDvQp-21" edge="1">
          <mxGeometry relative="1" as="geometry" />
        </mxCell>
        <mxCell id="iQq_EG-Ltk0UznXGDvQp-34" style="edgeStyle=orthogonalEdgeStyle;rounded=0;orthogonalLoop=1;jettySize=auto;html=1;exitX=1;exitY=0.5;exitDx=0;exitDy=0;entryX=0;entryY=0.5;entryDx=0;entryDy=0;" parent="1" source="iQq_EG-Ltk0UznXGDvQp-8" target="iQq_EG-Ltk0UznXGDvQp-33" edge="1">
          <mxGeometry relative="1" as="geometry" />
        </mxCell>
        <mxCell id="iQq_EG-Ltk0UznXGDvQp-8" value="" style="rounded=0;whiteSpace=wrap;html=1;" parent="1" vertex="1">
          <mxGeometry x="398" y="179" width="146" height="329" as="geometry" />
        </mxCell>
        <mxCell id="iQq_EG-Ltk0UznXGDvQp-9" value="信息核验" style="rounded=0;whiteSpace=wrap;html=1;" parent="1" vertex="1">
          <mxGeometry x="214" y="200" width="120" height="60" as="geometry" />
        </mxCell>
        <mxCell id="iQq_EG-Ltk0UznXGDvQp-10" value="三级协同" style="rounded=0;whiteSpace=wrap;html=1;" parent="1" vertex="1">
          <mxGeometry x="628" y="207" width="125" height="78" as="geometry" />
        </mxCell>
        <mxCell id="iQq_EG-Ltk0UznXGDvQp-11" value="省部共享平台" style="rounded=0;whiteSpace=wrap;html=1;" parent="1" vertex="1">
          <mxGeometry x="628" y="304" width="125" height="78" as="geometry" />
        </mxCell>
        <mxCell id="iQq_EG-Ltk0UznXGDvQp-12" value="省非税中台" style="rounded=0;whiteSpace=wrap;html=1;" parent="1" vertex="1">
          <mxGeometry x="628" y="401" width="125" height="78" as="geometry" />
        </mxCell>
        <mxCell id="iQq_EG-Ltk0UznXGDvQp-13" value="数据转发网关" style="rounded=0;whiteSpace=wrap;html=1;" parent="1" vertex="1">
          <mxGeometry x="409" y="204" width="120" height="60" as="geometry" />
        </mxCell>
        <mxCell id="iQq_EG-Ltk0UznXGDvQp-14" value="数据清洗" style="rounded=0;whiteSpace=wrap;html=1;" parent="1" vertex="1">
          <mxGeometry x="409" y="278" width="120" height="60" as="geometry" />
        </mxCell>
        <mxCell id="iQq_EG-Ltk0UznXGDvQp-15" value="数据共享" style="rounded=0;whiteSpace=wrap;html=1;" parent="1" vertex="1">
          <mxGeometry x="409" y="351" width="120" height="60" as="geometry" />
        </mxCell>
        <mxCell id="iQq_EG-Ltk0UznXGDvQp-16" value="数据聚合" style="rounded=0;whiteSpace=wrap;html=1;" parent="1" vertex="1">
          <mxGeometry x="409" y="424" width="120" height="60" as="geometry" />
        </mxCell>
        <mxCell id="iQq_EG-Ltk0UznXGDvQp-17" value="电子支付" style="rounded=0;whiteSpace=wrap;html=1;" parent="1" vertex="1">
          <mxGeometry x="214" y="275" width="120" height="60" as="geometry" />
        </mxCell>
        <mxCell id="iQq_EG-Ltk0UznXGDvQp-18" value="短信" style="rounded=0;whiteSpace=wrap;html=1;" parent="1" vertex="1">
          <mxGeometry x="214" y="350" width="120" height="60" as="geometry" />
        </mxCell>
        <mxCell id="iQq_EG-Ltk0UznXGDvQp-21" value="。。。" style="rounded=0;whiteSpace=wrap;html=1;" parent="1" vertex="1">
          <mxGeometry x="628" y="493" width="125" height="78" as="geometry" />
        </mxCell>
        <mxCell id="iQq_EG-Ltk0UznXGDvQp-30" style="edgeStyle=orthogonalEdgeStyle;rounded=0;orthogonalLoop=1;jettySize=auto;html=1;entryX=0.5;entryY=0;entryDx=0;entryDy=0;entryPerimeter=0;" parent="1" source="iQq_EG-Ltk0UznXGDvQp-28" target="iQq_EG-Ltk0UznXGDvQp-29" edge="1">
          <mxGeometry relative="1" as="geometry" />
        </mxCell>
        <mxCell id="iQq_EG-Ltk0UznXGDvQp-28" value="数据汇聚" style="rounded=0;whiteSpace=wrap;html=1;" parent="1" vertex="1">
          <mxGeometry x="216" y="491" width="120" height="60" as="geometry" />
        </mxCell>
        <mxCell id="iQq_EG-Ltk0UznXGDvQp-32" style="edgeStyle=orthogonalEdgeStyle;rounded=0;orthogonalLoop=1;jettySize=auto;html=1;exitX=1;exitY=0.5;exitDx=0;exitDy=0;exitPerimeter=0;entryX=0.5;entryY=1;entryDx=0;entryDy=0;" parent="1" source="iQq_EG-Ltk0UznXGDvQp-29" target="iQq_EG-Ltk0UznXGDvQp-8" edge="1">
          <mxGeometry relative="1" as="geometry" />
        </mxCell>
        <mxCell id="iQq_EG-Ltk0UznXGDvQp-29" value="数据共享库" style="shape=cylinder3;whiteSpace=wrap;html=1;boundedLbl=1;backgroundOutline=1;size=15;" parent="1" vertex="1">
          <mxGeometry x="338" y="591" width="81" height="59" as="geometry" />
        </mxCell>
        <mxCell id="iQq_EG-Ltk0UznXGDvQp-33" value="公示平台" style="rounded=0;whiteSpace=wrap;html=1;" parent="1" vertex="1">
          <mxGeometry x="628" y="101" width="125" height="78" as="geometry" />
        </mxCell>
        <mxCell id="iQq_EG-Ltk0UznXGDvQp-35" value="电子签章平台" style="rounded=0;whiteSpace=wrap;html=1;" parent="1" vertex="1">
          <mxGeometry x="214" y="421" width="120" height="60" as="geometry" />
        </mxCell>
        <mxCell id="iV_mLQSbLs52s0UW8IVa-1" style="edgeStyle=elbowEdgeStyle;rounded=0;orthogonalLoop=1;jettySize=auto;html=1;elbow=vertical;curved=0;" parent="1" source="iQq_EG-Ltk0UznXGDvQp-36" target="iQq_EG-Ltk0UznXGDvQp-37" edge="1">
          <mxGeometry relative="1" as="geometry">
            <Array as="points">
              <mxPoint x="371" y="803" />
            </Array>
          </mxGeometry>
        </mxCell>
        <mxCell id="iQq_EG-Ltk0UznXGDvQp-36" value="省综合执法系统" style="shape=umlLifeline;perimeter=lifelinePerimeter;whiteSpace=wrap;html=1;container=1;dropTarget=0;collapsible=0;recursiveResize=0;outlineConnect=0;portConstraint=eastwest;newEdgeStyle={&quot;edgeStyle&quot;:&quot;elbowEdgeStyle&quot;,&quot;elbow&quot;:&quot;vertical&quot;,&quot;curved&quot;:0,&quot;rounded&quot;:0};" parent="1" vertex="1">
          <mxGeometry x="187" y="719" width="100" height="300" as="geometry" />
        </mxCell>
        <mxCell id="iQq_EG-Ltk0UznXGDvQp-37" value="" style="shape=umlLifeline;perimeter=lifelinePerimeter;whiteSpace=wrap;html=1;container=1;dropTarget=0;collapsible=0;recursiveResize=0;outlineConnect=0;portConstraint=eastwest;newEdgeStyle={&quot;edgeStyle&quot;:&quot;elbowEdgeStyle&quot;,&quot;elbow&quot;:&quot;vertical&quot;,&quot;curved&quot;:0,&quot;rounded&quot;:0};" parent="1" vertex="1">
          <mxGeometry x="446" y="719" width="100" height="300" as="geometry" />
        </mxCell>
      </root>
    </mxGraphModel>
  </diagram>
  <diagram id="st-DHecbV2RhVkj3u1B7" name="第 6 页">
    <mxGraphModel dx="2901" dy="1128" grid="0" gridSize="10" guides="1" tooltips="1" connect="1" arrows="1" fold="1" page="1" pageScale="1" pageWidth="827" pageHeight="1169" math="0" shadow="0">
      <root>
        <mxCell id="0" />
        <mxCell id="1" parent="0" />
        <mxCell id="PKBIfdxRUPvsT6xc7333-37" value="" style="rounded=0;whiteSpace=wrap;html=1;dashed=1;dashPattern=8 8;" parent="1" vertex="1">
          <mxGeometry x="69" y="538" width="736" height="97" as="geometry" />
        </mxCell>
        <mxCell id="PKBIfdxRUPvsT6xc7333-10" style="edgeStyle=orthogonalEdgeStyle;rounded=0;orthogonalLoop=1;jettySize=auto;html=1;exitX=1;exitY=0.5;exitDx=0;exitDy=0;" parent="1" source="PKBIfdxRUPvsT6xc7333-2" target="PKBIfdxRUPvsT6xc7333-8" edge="1">
          <mxGeometry relative="1" as="geometry" />
        </mxCell>
        <mxCell id="PKBIfdxRUPvsT6xc7333-13" value="服务调用" style="edgeLabel;html=1;align=center;verticalAlign=middle;resizable=0;points=[];" parent="PKBIfdxRUPvsT6xc7333-10" vertex="1" connectable="0">
          <mxGeometry x="-0.098" y="4" relative="1" as="geometry">
            <mxPoint x="3" y="15" as="offset" />
          </mxGeometry>
        </mxCell>
        <mxCell id="PKBIfdxRUPvsT6xc7333-2" value="省综合执法平台" style="rounded=0;whiteSpace=wrap;html=1;fillColor=#1ba1e2;fontColor=#ffffff;strokeColor=#006EAF;" parent="1" vertex="1">
          <mxGeometry x="249" y="332" width="120" height="60" as="geometry" />
        </mxCell>
        <mxCell id="PKBIfdxRUPvsT6xc7333-7" style="edgeStyle=orthogonalEdgeStyle;rounded=0;orthogonalLoop=1;jettySize=auto;html=1;" parent="1" source="PKBIfdxRUPvsT6xc7333-3" target="PKBIfdxRUPvsT6xc7333-2" edge="1">
          <mxGeometry relative="1" as="geometry" />
        </mxCell>
        <mxCell id="PKBIfdxRUPvsT6xc7333-3" value="执法办案人员" style="shape=umlActor;verticalLabelPosition=bottom;verticalAlign=top;html=1;outlineConnect=0;" parent="1" vertex="1">
          <mxGeometry x="126" y="332" width="30" height="60" as="geometry" />
        </mxCell>
        <mxCell id="PKBIfdxRUPvsT6xc7333-12" style="edgeStyle=orthogonalEdgeStyle;rounded=0;orthogonalLoop=1;jettySize=auto;html=1;exitX=0;exitY=0.25;exitDx=0;exitDy=0;entryX=1;entryY=0.25;entryDx=0;entryDy=0;" parent="1" source="PKBIfdxRUPvsT6xc7333-8" target="PKBIfdxRUPvsT6xc7333-2" edge="1">
          <mxGeometry relative="1" as="geometry" />
        </mxCell>
        <mxCell id="PKBIfdxRUPvsT6xc7333-19" style="edgeStyle=orthogonalEdgeStyle;rounded=0;orthogonalLoop=1;jettySize=auto;html=1;exitX=0.25;exitY=0;exitDx=0;exitDy=0;entryX=0.25;entryY=1;entryDx=0;entryDy=0;" parent="1" source="PKBIfdxRUPvsT6xc7333-8" target="PKBIfdxRUPvsT6xc7333-9" edge="1">
          <mxGeometry relative="1" as="geometry" />
        </mxCell>
        <mxCell id="PKBIfdxRUPvsT6xc7333-8" value="省数据中台" style="rounded=0;whiteSpace=wrap;html=1;fillColor=#dae8fc;strokeColor=#6c8ebf;" parent="1" vertex="1">
          <mxGeometry x="437" y="332" width="120" height="60" as="geometry" />
        </mxCell>
        <mxCell id="PKBIfdxRUPvsT6xc7333-20" style="edgeStyle=orthogonalEdgeStyle;rounded=0;orthogonalLoop=1;jettySize=auto;html=1;exitX=0.75;exitY=1;exitDx=0;exitDy=0;entryX=0.75;entryY=0;entryDx=0;entryDy=0;" parent="1" source="PKBIfdxRUPvsT6xc7333-9" target="PKBIfdxRUPvsT6xc7333-8" edge="1">
          <mxGeometry relative="1" as="geometry" />
        </mxCell>
        <mxCell id="PKBIfdxRUPvsT6xc7333-9" value="非税中台" style="rounded=0;whiteSpace=wrap;html=1;fillColor=#dae8fc;strokeColor=#6c8ebf;" parent="1" vertex="1">
          <mxGeometry x="437" y="219" width="120" height="60" as="geometry" />
        </mxCell>
        <mxCell id="PKBIfdxRUPvsT6xc7333-14" value="消息通知" style="text;html=1;align=center;verticalAlign=middle;resizable=0;points=[];autosize=1;strokeColor=none;fillColor=none;" parent="1" vertex="1">
          <mxGeometry x="370" y="323" width="66" height="26" as="geometry" />
        </mxCell>
        <mxCell id="PKBIfdxRUPvsT6xc7333-18" style="edgeStyle=orthogonalEdgeStyle;rounded=0;orthogonalLoop=1;jettySize=auto;html=1;exitX=1;exitY=0.5;exitDx=0;exitDy=0;entryX=0;entryY=0.5;entryDx=0;entryDy=0;" parent="1" source="PKBIfdxRUPvsT6xc7333-15" target="PKBIfdxRUPvsT6xc7333-9" edge="1">
          <mxGeometry relative="1" as="geometry" />
        </mxCell>
        <mxCell id="PKBIfdxRUPvsT6xc7333-15" value="地市财政端" style="rounded=0;whiteSpace=wrap;html=1;fillColor=#dae8fc;strokeColor=#6c8ebf;" parent="1" vertex="1">
          <mxGeometry x="249" y="219" width="120" height="60" as="geometry" />
        </mxCell>
        <mxCell id="PKBIfdxRUPvsT6xc7333-25" style="edgeStyle=orthogonalEdgeStyle;rounded=0;orthogonalLoop=1;jettySize=auto;html=1;exitX=1;exitY=0.5;exitDx=0;exitDy=0;entryX=0.25;entryY=0;entryDx=0;entryDy=0;" parent="1" source="PKBIfdxRUPvsT6xc7333-21" target="PKBIfdxRUPvsT6xc7333-9" edge="1">
          <mxGeometry relative="1" as="geometry" />
        </mxCell>
        <mxCell id="PKBIfdxRUPvsT6xc7333-21" value="省非税小程序" style="rounded=0;whiteSpace=wrap;html=1;fillColor=#dae8fc;strokeColor=#6c8ebf;" parent="1" vertex="1">
          <mxGeometry x="250" y="121" width="120" height="60" as="geometry" />
        </mxCell>
        <mxCell id="PKBIfdxRUPvsT6xc7333-24" style="edgeStyle=orthogonalEdgeStyle;rounded=0;orthogonalLoop=1;jettySize=auto;html=1;entryX=0;entryY=0.5;entryDx=0;entryDy=0;" parent="1" source="PKBIfdxRUPvsT6xc7333-22" target="PKBIfdxRUPvsT6xc7333-21" edge="1">
          <mxGeometry relative="1" as="geometry" />
        </mxCell>
        <mxCell id="PKBIfdxRUPvsT6xc7333-27" style="edgeStyle=orthogonalEdgeStyle;rounded=0;orthogonalLoop=1;jettySize=auto;html=1;exitX=0.5;exitY=0;exitDx=0;exitDy=0;exitPerimeter=0;entryX=0;entryY=0.5;entryDx=0;entryDy=0;" parent="1" source="PKBIfdxRUPvsT6xc7333-22" target="PKBIfdxRUPvsT6xc7333-26" edge="1">
          <mxGeometry relative="1" as="geometry" />
        </mxCell>
        <mxCell id="PKBIfdxRUPvsT6xc7333-75" style="edgeStyle=orthogonalEdgeStyle;rounded=0;orthogonalLoop=1;jettySize=auto;html=1;exitX=0;exitY=0.3333333333333333;exitDx=0;exitDy=0;exitPerimeter=0;entryX=0;entryY=0.5;entryDx=0;entryDy=0;" parent="1" source="PKBIfdxRUPvsT6xc7333-22" target="PKBIfdxRUPvsT6xc7333-73" edge="1">
          <mxGeometry relative="1" as="geometry">
            <Array as="points">
              <mxPoint x="66" y="106" />
              <mxPoint x="66" y="455" />
            </Array>
          </mxGeometry>
        </mxCell>
        <mxCell id="PKBIfdxRUPvsT6xc7333-22" value="处罚对象" style="shape=umlActor;verticalLabelPosition=bottom;verticalAlign=top;html=1;outlineConnect=0;" parent="1" vertex="1">
          <mxGeometry x="123" y="86" width="30" height="60" as="geometry" />
        </mxCell>
        <mxCell id="PKBIfdxRUPvsT6xc7333-28" style="edgeStyle=orthogonalEdgeStyle;rounded=0;orthogonalLoop=1;jettySize=auto;html=1;exitX=1;exitY=0.5;exitDx=0;exitDy=0;entryX=0.75;entryY=0;entryDx=0;entryDy=0;" parent="1" source="PKBIfdxRUPvsT6xc7333-26" target="PKBIfdxRUPvsT6xc7333-9" edge="1">
          <mxGeometry relative="1" as="geometry" />
        </mxCell>
        <mxCell id="PKBIfdxRUPvsT6xc7333-26" value="银行" style="rounded=0;whiteSpace=wrap;html=1;fillColor=#dae8fc;strokeColor=#6c8ebf;" parent="1" vertex="1">
          <mxGeometry x="249" y="30" width="120" height="60" as="geometry" />
        </mxCell>
        <mxCell id="PKBIfdxRUPvsT6xc7333-67" style="edgeStyle=orthogonalEdgeStyle;rounded=0;orthogonalLoop=1;jettySize=auto;html=1;entryX=0;entryY=0.5;entryDx=0;entryDy=0;" parent="1" source="PKBIfdxRUPvsT6xc7333-31" target="PKBIfdxRUPvsT6xc7333-15" edge="1">
          <mxGeometry relative="1" as="geometry" />
        </mxCell>
        <mxCell id="PKBIfdxRUPvsT6xc7333-31" value="财政人员" style="shape=umlActor;verticalLabelPosition=bottom;verticalAlign=top;html=1;outlineConnect=0;" parent="1" vertex="1">
          <mxGeometry x="123" y="219" width="30" height="60" as="geometry" />
        </mxCell>
        <mxCell id="PKBIfdxRUPvsT6xc7333-33" value="执法办案终端" style="rounded=0;whiteSpace=wrap;html=1;fillColor=#ffe6cc;strokeColor=#d79b00;" parent="1" vertex="1">
          <mxGeometry x="96" y="558" width="120" height="60" as="geometry" />
        </mxCell>
        <mxCell id="PKBIfdxRUPvsT6xc7333-34" value="省执法小程序" style="rounded=0;whiteSpace=wrap;html=1;fillColor=#dae8fc;strokeColor=#6c8ebf;" parent="1" vertex="1">
          <mxGeometry x="374" y="558" width="120" height="60" as="geometry" />
        </mxCell>
        <mxCell id="PKBIfdxRUPvsT6xc7333-35" value="地市财税端" style="rounded=0;whiteSpace=wrap;html=1;fillColor=#dae8fc;strokeColor=#6c8ebf;" parent="1" vertex="1">
          <mxGeometry x="527" y="558" width="120" height="60" as="geometry" />
        </mxCell>
        <mxCell id="PKBIfdxRUPvsT6xc7333-36" value="银行" style="rounded=0;whiteSpace=wrap;html=1;fillColor=#dae8fc;strokeColor=#6c8ebf;" parent="1" vertex="1">
          <mxGeometry x="674" y="558" width="120" height="60" as="geometry" />
        </mxCell>
        <mxCell id="PKBIfdxRUPvsT6xc7333-38" value="" style="rounded=0;whiteSpace=wrap;html=1;dashed=1;dashPattern=8 8;" parent="1" vertex="1">
          <mxGeometry x="71" y="648" width="734" height="300" as="geometry" />
        </mxCell>
        <mxCell id="PKBIfdxRUPvsT6xc7333-39" value="" style="rounded=0;whiteSpace=wrap;html=1;dashed=1;dashPattern=8 8;" parent="1" vertex="1">
          <mxGeometry x="71" y="972" width="734" height="97" as="geometry" />
        </mxCell>
        <mxCell id="PKBIfdxRUPvsT6xc7333-40" value="用户端" style="text;html=1;align=center;verticalAlign=middle;resizable=0;points=[];autosize=1;strokeColor=none;fillColor=none;flipV=1;" parent="1" vertex="1">
          <mxGeometry x="4" y="578" width="54" height="26" as="geometry" />
        </mxCell>
        <mxCell id="PKBIfdxRUPvsT6xc7333-41" value="执法办案PC端" style="rounded=0;whiteSpace=wrap;html=1;fillColor=#ffe6cc;strokeColor=#d79b00;" parent="1" vertex="1">
          <mxGeometry x="238" y="558" width="120" height="60" as="geometry" />
        </mxCell>
        <mxCell id="PKBIfdxRUPvsT6xc7333-42" value="省交通厅综&lt;br&gt;合执法系统" style="text;html=1;align=center;verticalAlign=middle;resizable=0;points=[];autosize=1;strokeColor=none;fillColor=none;" parent="1" vertex="1">
          <mxGeometry x="-6" y="733" width="78" height="41" as="geometry" />
        </mxCell>
        <mxCell id="PKBIfdxRUPvsT6xc7333-43" value="执法办案" style="rounded=0;whiteSpace=wrap;html=1;fillColor=#ffe6cc;strokeColor=#d79b00;" parent="1" vertex="1">
          <mxGeometry x="96" y="669" width="166" height="100" as="geometry" />
        </mxCell>
        <mxCell id="PKBIfdxRUPvsT6xc7333-44" value="省交通厅交&lt;br&gt;换共享平台" style="text;html=1;align=center;verticalAlign=middle;resizable=0;points=[];autosize=1;strokeColor=none;fillColor=none;" parent="1" vertex="1">
          <mxGeometry x="-2" y="994" width="78" height="41" as="geometry" />
        </mxCell>
        <mxCell id="PKBIfdxRUPvsT6xc7333-45" value="" style="rounded=0;whiteSpace=wrap;html=1;dashed=1;dashPattern=8 8;" parent="1" vertex="1">
          <mxGeometry x="70" y="1090" width="734" height="97" as="geometry" />
        </mxCell>
        <mxCell id="PKBIfdxRUPvsT6xc7333-46" value="省非税中台" style="text;html=1;align=center;verticalAlign=middle;resizable=0;points=[];autosize=1;strokeColor=none;fillColor=none;" parent="1" vertex="1">
          <mxGeometry x="-2" y="1120" width="78" height="26" as="geometry" />
        </mxCell>
        <mxCell id="PKBIfdxRUPvsT6xc7333-47" value="地市财税接入" style="rounded=0;whiteSpace=wrap;html=1;fillColor=#dae8fc;strokeColor=#6c8ebf;" parent="1" vertex="1">
          <mxGeometry x="88" y="1108.5" width="120" height="60" as="geometry" />
        </mxCell>
        <mxCell id="PKBIfdxRUPvsT6xc7333-48" value="支付服务" style="rounded=0;whiteSpace=wrap;html=1;fillColor=#dae8fc;strokeColor=#6c8ebf;" parent="1" vertex="1">
          <mxGeometry x="224.5" y="1108.5" width="120" height="60" as="geometry" />
        </mxCell>
        <mxCell id="PKBIfdxRUPvsT6xc7333-49" value="接口鉴权" style="rounded=0;whiteSpace=wrap;html=1;fillColor=#dae8fc;strokeColor=#6c8ebf;" parent="1" vertex="1">
          <mxGeometry x="95" y="994" width="179" height="60" as="geometry" />
        </mxCell>
        <mxCell id="PKBIfdxRUPvsT6xc7333-50" value="接口转发" style="rounded=0;whiteSpace=wrap;html=1;fillColor=#dae8fc;strokeColor=#6c8ebf;" parent="1" vertex="1">
          <mxGeometry x="363" y="994" width="179" height="60" as="geometry" />
        </mxCell>
        <mxCell id="PKBIfdxRUPvsT6xc7333-51" value="消息通知" style="rounded=0;whiteSpace=wrap;html=1;fillColor=#dae8fc;strokeColor=#6c8ebf;" parent="1" vertex="1">
          <mxGeometry x="613" y="994" width="179" height="60" as="geometry" />
        </mxCell>
        <mxCell id="PKBIfdxRUPvsT6xc7333-52" value="票据管理" style="rounded=0;whiteSpace=wrap;html=1;fillColor=#dae8fc;strokeColor=#6c8ebf;" parent="1" vertex="1">
          <mxGeometry x="367" y="1108.5" width="120" height="60" as="geometry" />
        </mxCell>
        <mxCell id="PKBIfdxRUPvsT6xc7333-53" value="消息通知" style="rounded=0;whiteSpace=wrap;html=1;fillColor=#dae8fc;strokeColor=#6c8ebf;" parent="1" vertex="1">
          <mxGeometry x="517" y="1108.5" width="120" height="60" as="geometry" />
        </mxCell>
        <mxCell id="PKBIfdxRUPvsT6xc7333-54" value="执法台账" style="rounded=0;whiteSpace=wrap;html=1;fillColor=#dae8fc;strokeColor=#6c8ebf;" parent="1" vertex="1">
          <mxGeometry x="666" y="1109" width="120" height="60" as="geometry" />
        </mxCell>
        <mxCell id="PKBIfdxRUPvsT6xc7333-55" value="评议考核/执法办案预警" style="rounded=0;whiteSpace=wrap;html=1;fillColor=#ffe6cc;strokeColor=#d79b00;" parent="1" vertex="1">
          <mxGeometry x="273" y="669" width="166" height="100" as="geometry" />
        </mxCell>
        <mxCell id="PKBIfdxRUPvsT6xc7333-56" value="统计分析" style="rounded=0;whiteSpace=wrap;html=1;fillColor=#ffe6cc;strokeColor=#d79b00;" parent="1" vertex="1">
          <mxGeometry x="449" y="669" width="166" height="100" as="geometry" />
        </mxCell>
        <mxCell id="PKBIfdxRUPvsT6xc7333-57" value="信息公示" style="rounded=0;whiteSpace=wrap;html=1;fillColor=#ffe6cc;strokeColor=#d79b00;" parent="1" vertex="1">
          <mxGeometry x="630" y="669" width="166" height="100" as="geometry" />
        </mxCell>
        <mxCell id="PKBIfdxRUPvsT6xc7333-58" value="用票管理" style="rounded=0;whiteSpace=wrap;html=1;fillColor=#1ba1e2;fontColor=#ffffff;strokeColor=#006EAF;" parent="1" vertex="1">
          <mxGeometry x="95" y="799" width="120" height="60" as="geometry" />
        </mxCell>
        <mxCell id="PKBIfdxRUPvsT6xc7333-59" value="执收信息维护" style="rounded=0;whiteSpace=wrap;html=1;fillColor=#1ba1e2;fontColor=#ffffff;strokeColor=#006EAF;" parent="1" vertex="1">
          <mxGeometry x="238" y="799" width="120" height="60" as="geometry" />
        </mxCell>
        <mxCell id="PKBIfdxRUPvsT6xc7333-60" value="通用票据用户服务" style="rounded=0;whiteSpace=wrap;html=1;fillColor=#1ba1e2;fontColor=#ffffff;strokeColor=#006EAF;" parent="1" vertex="1">
          <mxGeometry x="382" y="799" width="120" height="60" as="geometry" />
        </mxCell>
        <mxCell id="PKBIfdxRUPvsT6xc7333-61" value="缴款通知管理" style="rounded=0;whiteSpace=wrap;html=1;fillColor=#1ba1e2;fontColor=#ffffff;strokeColor=#006EAF;" parent="1" vertex="1">
          <mxGeometry x="532" y="799" width="120" height="60" as="geometry" />
        </mxCell>
        <mxCell id="PKBIfdxRUPvsT6xc7333-62" value="电子缴款书" style="rounded=0;whiteSpace=wrap;html=1;fillColor=#1ba1e2;fontColor=#ffffff;strokeColor=#006EAF;" parent="1" vertex="1">
          <mxGeometry x="676" y="799" width="120" height="60" as="geometry" />
        </mxCell>
        <mxCell id="PKBIfdxRUPvsT6xc7333-63" value="退付申请" style="rounded=0;whiteSpace=wrap;html=1;fillColor=#1ba1e2;fontColor=#ffffff;strokeColor=#006EAF;" parent="1" vertex="1">
          <mxGeometry x="95" y="874" width="120" height="60" as="geometry" />
        </mxCell>
        <mxCell id="PKBIfdxRUPvsT6xc7333-64" value="收入退付书" style="rounded=0;whiteSpace=wrap;html=1;fillColor=#1ba1e2;fontColor=#ffffff;strokeColor=#006EAF;" parent="1" vertex="1">
          <mxGeometry x="238" y="874" width="120" height="60" as="geometry" />
        </mxCell>
        <mxCell id="PKBIfdxRUPvsT6xc7333-65" value="分成核算" style="rounded=0;whiteSpace=wrap;html=1;fillColor=#1ba1e2;fontColor=#ffffff;strokeColor=#006EAF;" parent="1" vertex="1">
          <mxGeometry x="382" y="874" width="120" height="60" as="geometry" />
        </mxCell>
        <mxCell id="PKBIfdxRUPvsT6xc7333-66" value="支付消息同步管理" style="rounded=0;whiteSpace=wrap;html=1;fillColor=#1ba1e2;fontColor=#ffffff;strokeColor=#006EAF;" parent="1" vertex="1">
          <mxGeometry x="675" y="874" width="120" height="60" as="geometry" />
        </mxCell>
        <mxCell id="PKBIfdxRUPvsT6xc7333-74" style="edgeStyle=orthogonalEdgeStyle;rounded=0;orthogonalLoop=1;jettySize=auto;html=1;exitX=0.5;exitY=0;exitDx=0;exitDy=0;entryX=0.5;entryY=1;entryDx=0;entryDy=0;" parent="1" source="PKBIfdxRUPvsT6xc7333-73" target="PKBIfdxRUPvsT6xc7333-2" edge="1">
          <mxGeometry relative="1" as="geometry" />
        </mxCell>
        <mxCell id="PKBIfdxRUPvsT6xc7333-73" value="省综合执法终端" style="rounded=0;whiteSpace=wrap;html=1;fillColor=#1ba1e2;fontColor=#ffffff;strokeColor=#006EAF;" parent="1" vertex="1">
          <mxGeometry x="249" y="425" width="120" height="60" as="geometry" />
        </mxCell>
        <mxCell id="qaWVpzrmpW4KZD8VaEOr-1" value="统计分析" style="rounded=0;whiteSpace=wrap;html=1;fillColor=#1ba1e2;fontColor=#ffffff;strokeColor=#006EAF;" parent="1" vertex="1">
          <mxGeometry x="532" y="874" width="120" height="60" as="geometry" />
        </mxCell>
      </root>
    </mxGraphModel>
  </diagram>
  <diagram id="yWmEyyitxP7-GU35_jri" name="第 7 页">
    <mxGraphModel dx="2074" dy="1128" grid="0" gridSize="10" guides="1" tooltips="1" connect="1" arrows="1" fold="1" page="1" pageScale="1" pageWidth="827" pageHeight="1169" math="0" shadow="0">
      <root>
        <mxCell id="0" />
        <mxCell id="1" parent="0" />
        <mxCell id="sBKUDGH1yX1UCZwi9779-1" value="&lt;font style=&quot;font-size: 14px;&quot;&gt;智慧水运平台&lt;/font&gt;" style="rounded=0;whiteSpace=wrap;html=1;dashed=1;dashPattern=8 8;fillColor=#cce5ff;strokeColor=#36393d;" parent="1" vertex="1">
          <mxGeometry x="69" y="504" width="736" height="97" as="geometry" />
        </mxCell>
        <mxCell id="sBKUDGH1yX1UCZwi9779-6" value="" style="rounded=0;whiteSpace=wrap;html=1;dashed=1;dashPattern=8 8;fillColor=#eeeeee;strokeColor=#36393d;" parent="1" vertex="1">
          <mxGeometry x="71" y="612" width="734" height="374" as="geometry" />
        </mxCell>
        <mxCell id="sBKUDGH1yX1UCZwi9779-10" value="执法办案（案件环节、文书、证据材料，卷宗、裁量权，处罚结果，处罚对象信息）" style="rounded=0;whiteSpace=wrap;html=1;fillColor=#a20025;strokeColor=#6F0000;fontColor=#ffffff;" parent="1" vertex="1">
          <mxGeometry x="290" y="797" width="155" height="100" as="geometry" />
        </mxCell>
        <mxCell id="sBKUDGH1yX1UCZwi9779-20" value="用户管理（机构、人员、证件）" style="rounded=0;whiteSpace=wrap;html=1;fillColor=#a20025;strokeColor=#6F0000;fontColor=#ffffff;" parent="1" vertex="1">
          <mxGeometry x="471" y="797" width="147" height="100" as="geometry" />
        </mxCell>
        <mxCell id="sBKUDGH1yX1UCZwi9779-24" value="文件服务" style="rounded=0;whiteSpace=wrap;html=1;fillColor=#ffe6cc;strokeColor=#d79b00;" parent="1" vertex="1">
          <mxGeometry x="290" y="912" width="120" height="60" as="geometry" />
        </mxCell>
        <mxCell id="sBKUDGH1yX1UCZwi9779-26" value="案件办理服务" style="rounded=0;whiteSpace=wrap;html=1;fillColor=#ffe6cc;strokeColor=#d79b00;" parent="1" vertex="1">
          <mxGeometry x="419" y="912" width="120" height="60" as="geometry" />
        </mxCell>
        <mxCell id="sBKUDGH1yX1UCZwi9779-27" value="用户服务" style="rounded=0;whiteSpace=wrap;html=1;fillColor=#ffe6cc;strokeColor=#d79b00;" parent="1" vertex="1">
          <mxGeometry x="550" y="912" width="120" height="60" as="geometry" />
        </mxCell>
        <mxCell id="sBKUDGH1yX1UCZwi9779-32" value="基础信息服务" style="rounded=0;whiteSpace=wrap;html=1;fillColor=#ffe6cc;strokeColor=#d79b00;" parent="1" vertex="1">
          <mxGeometry x="681" y="912" width="111" height="60" as="geometry" />
        </mxCell>
        <mxCell id="sBKUDGH1yX1UCZwi9779-33" value="数据聚合服务" style="rounded=0;whiteSpace=wrap;html=1;fillColor=#a20025;strokeColor=#6F0000;fontColor=#ffffff;" parent="1" vertex="1">
          <mxGeometry x="290" y="725" width="242" height="60" as="geometry" />
        </mxCell>
        <mxCell id="sBKUDGH1yX1UCZwi9779-34" value="API服务" style="rounded=0;whiteSpace=wrap;html=1;fillColor=#a20025;strokeColor=#6F0000;fontColor=#ffffff;" parent="1" vertex="1">
          <mxGeometry x="290" y="659" width="499" height="60" as="geometry" />
        </mxCell>
        <mxCell id="sBKUDGH1yX1UCZwi9779-35" value="接口安全" style="rounded=0;whiteSpace=wrap;html=1;fillColor=#ffe6cc;strokeColor=#d79b00;" parent="1" vertex="1">
          <mxGeometry x="218" y="659" width="57" height="313" as="geometry" />
        </mxCell>
        <mxCell id="sBKUDGH1yX1UCZwi9779-37" value="调用记录" style="rounded=0;whiteSpace=wrap;html=1;fillColor=#ffe6cc;strokeColor=#d79b00;" parent="1" vertex="1">
          <mxGeometry x="153" y="659" width="57" height="313" as="geometry" />
        </mxCell>
        <mxCell id="sBKUDGH1yX1UCZwi9779-38" value="数据质量监控" style="rounded=0;whiteSpace=wrap;html=1;fillColor=#ffe6cc;strokeColor=#d79b00;" parent="1" vertex="1">
          <mxGeometry x="88" y="659" width="57" height="313" as="geometry" />
        </mxCell>
        <mxCell id="sBKUDGH1yX1UCZwi9779-39" value="&lt;font style=&quot;font-size: 14px;&quot;&gt;省综合执法平台&lt;/font&gt;" style="text;html=1;align=center;verticalAlign=middle;resizable=0;points=[];autosize=1;strokeColor=none;fillColor=none;" parent="1" vertex="1">
          <mxGeometry x="383" y="616" width="116" height="29" as="geometry" />
        </mxCell>
        <mxCell id="sBKUDGH1yX1UCZwi9779-40" value="线索接收（处罚对象）" style="rounded=0;whiteSpace=wrap;html=1;fillColor=#a20025;strokeColor=#6F0000;fontColor=#ffffff;" parent="1" vertex="1">
          <mxGeometry x="641" y="797" width="148" height="100" as="geometry" />
        </mxCell>
        <mxCell id="sBKUDGH1yX1UCZwi9779-41" value="数据适配服务" style="rounded=0;whiteSpace=wrap;html=1;fillColor=#a20025;strokeColor=#6F0000;fontColor=#ffffff;" parent="1" vertex="1">
          <mxGeometry x="545" y="725" width="242" height="60" as="geometry" />
        </mxCell>
        <mxCell id="sBKUDGH1yX1UCZwi9779-42" value="&lt;font style=&quot;font-size: 14px;&quot;&gt;三级协同系统&lt;/font&gt;" style="rounded=0;whiteSpace=wrap;html=1;dashed=1;dashPattern=8 8;fillColor=#d5e8d4;strokeColor=#82b366;" parent="1" vertex="1">
          <mxGeometry x="67" y="1026" width="736" height="97" as="geometry" />
        </mxCell>
        <mxCell id="sBKUDGH1yX1UCZwi9779-43" value="" style="rounded=0;whiteSpace=wrap;html=1;dashed=1;dashPattern=8 8;fillColor=#eeeeee;strokeColor=#36393d;" parent="1" vertex="1">
          <mxGeometry x="69" y="1134" width="734" height="374" as="geometry" />
        </mxCell>
        <mxCell id="sBKUDGH1yX1UCZwi9779-44" value="执法办案（案件环节、文书、证据材料，卷宗、裁量权，处罚结果，处罚对象信息）" style="rounded=0;whiteSpace=wrap;html=1;fillColor=#a20025;strokeColor=#6F0000;fontColor=#ffffff;" parent="1" vertex="1">
          <mxGeometry x="288" y="1319" width="155" height="100" as="geometry" />
        </mxCell>
        <mxCell id="sBKUDGH1yX1UCZwi9779-45" value="用户管理（机构、人员、证件）" style="rounded=0;whiteSpace=wrap;html=1;fillColor=#a20025;strokeColor=#6F0000;fontColor=#ffffff;" parent="1" vertex="1">
          <mxGeometry x="469" y="1319" width="147" height="100" as="geometry" />
        </mxCell>
        <mxCell id="sBKUDGH1yX1UCZwi9779-46" value="文件服务" style="rounded=0;whiteSpace=wrap;html=1;fillColor=#ffe6cc;strokeColor=#d79b00;" parent="1" vertex="1">
          <mxGeometry x="288" y="1434" width="120" height="60" as="geometry" />
        </mxCell>
        <mxCell id="sBKUDGH1yX1UCZwi9779-47" value="案件办理服务" style="rounded=0;whiteSpace=wrap;html=1;fillColor=#ffe6cc;strokeColor=#d79b00;" parent="1" vertex="1">
          <mxGeometry x="417" y="1434" width="120" height="60" as="geometry" />
        </mxCell>
        <mxCell id="sBKUDGH1yX1UCZwi9779-48" value="用户服务" style="rounded=0;whiteSpace=wrap;html=1;fillColor=#ffe6cc;strokeColor=#d79b00;" parent="1" vertex="1">
          <mxGeometry x="548" y="1434" width="120" height="60" as="geometry" />
        </mxCell>
        <mxCell id="sBKUDGH1yX1UCZwi9779-49" value="基础信息服务" style="rounded=0;whiteSpace=wrap;html=1;fillColor=#ffe6cc;strokeColor=#d79b00;" parent="1" vertex="1">
          <mxGeometry x="679" y="1434" width="111" height="60" as="geometry" />
        </mxCell>
        <mxCell id="sBKUDGH1yX1UCZwi9779-50" value="数据聚合服务" style="rounded=0;whiteSpace=wrap;html=1;fillColor=#a20025;strokeColor=#6F0000;fontColor=#ffffff;" parent="1" vertex="1">
          <mxGeometry x="288" y="1247" width="242" height="60" as="geometry" />
        </mxCell>
        <mxCell id="sBKUDGH1yX1UCZwi9779-51" value="API服务" style="rounded=0;whiteSpace=wrap;html=1;fillColor=#a20025;strokeColor=#6F0000;fontColor=#ffffff;" parent="1" vertex="1">
          <mxGeometry x="288" y="1181" width="499" height="60" as="geometry" />
        </mxCell>
        <mxCell id="sBKUDGH1yX1UCZwi9779-52" value="接口安全" style="rounded=0;whiteSpace=wrap;html=1;fillColor=#ffe6cc;strokeColor=#d79b00;" parent="1" vertex="1">
          <mxGeometry x="216" y="1181" width="57" height="313" as="geometry" />
        </mxCell>
        <mxCell id="sBKUDGH1yX1UCZwi9779-53" value="调用记录" style="rounded=0;whiteSpace=wrap;html=1;fillColor=#ffe6cc;strokeColor=#d79b00;" parent="1" vertex="1">
          <mxGeometry x="151" y="1181" width="57" height="313" as="geometry" />
        </mxCell>
        <mxCell id="sBKUDGH1yX1UCZwi9779-54" value="数据质量监控" style="rounded=0;whiteSpace=wrap;html=1;fillColor=#ffe6cc;strokeColor=#d79b00;" parent="1" vertex="1">
          <mxGeometry x="86" y="1181" width="57" height="313" as="geometry" />
        </mxCell>
        <mxCell id="sBKUDGH1yX1UCZwi9779-55" value="&lt;font style=&quot;font-size: 14px;&quot;&gt;省综合执法平台&lt;/font&gt;" style="text;html=1;align=center;verticalAlign=middle;resizable=0;points=[];autosize=1;strokeColor=none;fillColor=none;" parent="1" vertex="1">
          <mxGeometry x="381" y="1138" width="116" height="29" as="geometry" />
        </mxCell>
        <mxCell id="sBKUDGH1yX1UCZwi9779-56" value="线索接收（处罚对象，线索审核打回）" style="rounded=0;whiteSpace=wrap;html=1;fillColor=#a20025;strokeColor=#6F0000;fontColor=#ffffff;" parent="1" vertex="1">
          <mxGeometry x="639" y="1319" width="148" height="100" as="geometry" />
        </mxCell>
        <mxCell id="sBKUDGH1yX1UCZwi9779-57" value="数据适配服务" style="rounded=0;whiteSpace=wrap;html=1;fillColor=#a20025;strokeColor=#6F0000;fontColor=#ffffff;" parent="1" vertex="1">
          <mxGeometry x="543" y="1247" width="242" height="60" as="geometry" />
        </mxCell>
      </root>
    </mxGraphModel>
  </diagram>
</mxfile>
